<svg version="1.1" xmlns="http://www.w3.org/2000/svg" width="750" height="468">
<path d="M0 0 C5.08119848 0.62157562 9.88506643 1.68192327 14.80532837 3.10441589 C15.56261148 3.31934504 16.31989459 3.53427418 17.10012567 3.75571632 C19.63002783 4.47495185 22.15800287 5.2007355 24.68603516 5.92651367 C26.5130152 6.44737442 28.34011095 6.96782946 30.16731262 7.48791218 C35.15943174 8.91009826 40.14989879 10.3380046 45.14009905 11.76690674 C50.46163887 13.2896419 55.78466082 14.80717889 61.10751343 16.32531738 C70.21411507 18.92337299 79.31976441 21.52474346 88.42480469 24.12826538 C101.42172264 27.84455376 114.42054218 31.55415543 127.41979837 35.26225531 C168.18227177 46.890491 208.94022579 58.53434193 249.67881477 70.24600953 C255.32642206 71.8695451 260.97442245 73.49170608 266.62271118 75.11286926 C267.3893108 75.33291124 268.15591043 75.55295323 268.94574034 75.77966315 C271.95926964 76.64464579 274.97280197 77.50961781 277.98638749 78.37440455 C286.49663353 80.81664174 295.00507805 83.26494095 303.51050961 85.72389519 C309.32237597 87.40367992 315.13678384 89.0744764 320.95222855 90.74183655 C323.27897091 91.41070802 325.60479092 92.08279816 327.92957687 92.75843811 C331.04444515 93.66340882 334.16233294 94.55709961 337.28125 95.44799805 C338.1750065 95.71077136 339.06876301 95.97354467 339.98960304 96.24428082 C340.81867857 96.47861733 341.6477541 96.71295385 342.50195312 96.95439148 C343.56017273 97.25978364 343.56017273 97.25978364 344.63977051 97.57134533 C350.66979758 98.66649276 355.94843045 97.73199996 361.740448 96.02256775 C362.49082016 95.80920001 363.24119232 95.59583228 364.01430303 95.37599885 C366.52239481 94.6603986 369.02646498 93.93164132 371.53076172 93.20288086 C373.34136538 92.68336084 375.1522055 92.16466432 376.9632616 91.64672375 C381.91351317 90.22850896 386.860397 88.79885335 391.80681014 87.36731768 C397.08529912 85.84189797 402.36688211 84.32726607 407.64814758 82.81149292 C416.69037277 80.21481101 425.73074036 77.61174978 434.76986694 75.00430298 C448.85588178 70.9411955 462.94575622 66.8915835 477.03637695 62.84448242 C481.74655488 61.49147414 486.4567092 60.13838368 491.16685486 58.78526306 C492.33190223 58.45058087 493.49694961 58.11589867 494.69730145 57.77107459 C502.95226043 55.39950775 511.20672585 53.02622833 519.46095276 50.65211487 C557.82599779 39.61779782 596.20340548 28.62753073 634.59646249 17.6910848 C640.44260404 16.02546327 646.28766324 14.35606851 652.13248879 12.68583584 C658.1818191 10.95738936 664.2323066 9.2330311 670.28331566 7.51047134 C672.71637303 6.81721355 675.14906325 6.12266571 677.58135414 5.42672348 C680.83730214 4.49540909 684.0945853 3.56892883 687.35229492 2.64379883 C688.29940275 2.37167541 689.24651058 2.09955198 690.22231865 1.8191824 C691.08100107 1.57643109 691.93968349 1.33367979 692.8243866 1.08357239 C693.5643497 0.87260327 694.3043128 0.66163416 695.06669903 0.44427204 C697 0 697 0 700 0 C697.53940914 10.30364724 694.72917483 20.39356852 691.4309082 30.46704102 C690.52111824 33.28161872 689.61644286 36.0978322 688.71202087 38.91413879 C688.47649403 39.64641658 688.24096719 40.37869436 687.99830317 41.13316238 C682.93827093 56.89134694 678.09878308 72.71932846 673.3125 88.5625 C673.04806249 89.43729445 672.78362497 90.31208889 672.5111742 91.21339226 C654.33357297 151.45880105 644.47598948 205.90506196 649.34364319 269.15959167 C650.37881529 283.14955717 649.30715598 296.34274429 644.375 309.625 C644.12339111 310.31609863 643.87178223 311.00719727 643.61254883 311.71923828 C638.97038484 323.84113567 631.62547643 334.36821799 623 344 C622.42765625 344.64324219 621.8553125 345.28648437 621.265625 345.94921875 C605.2654379 362.90179794 580.69355064 374.31634818 557.29540253 375.08935165 C551.61933188 375.00821023 545.96947444 374.56501687 540.31239128 374.11709595 C471.57581826 369.01131648 422.40430606 381.647314 363.78663635 417.78198242 C362.95997278 418.28381452 362.13330921 418.78564661 361.28159523 419.30268574 C359.75394225 420.23393082 358.23641001 421.18208281 356.73192406 422.15030956 C351.83351504 425.12440963 351.83351504 425.12440963 347.97705078 424.54879761 C344.36169388 422.66792404 340.89807123 420.64703811 337.45141602 418.47436523 C277.10691508 381.29322298 227.13273435 369.18164556 156.33522034 374.29255676 C129.70570566 376.14488373 105.41111406 368.67136721 85 351 C83.87851563 350.09507812 83.87851563 350.09507812 82.734375 349.171875 C65.40609321 334.75183631 54.78727328 312.98129285 51 291 C50.83099182 290.03765945 50.83099182 290.03765945 50.65856934 289.05587769 C49.79843418 282.72826458 50.23742813 276.62237721 50.77494144 270.29397678 C56.45186368 202.74797562 43.61612595 144.62242585 24.4375 80.3125 C24.14517109 79.33139157 23.85284218 78.35028315 23.55165482 77.33944416 C16.92318808 55.11394771 10.13450466 32.93940904 3.09853363 10.83938789 C2.88706823 10.17397698 2.67560284 9.50856607 2.4577294 8.82299119 C1.89403511 7.05073538 1.32832444 5.27912127 0.76245785 3.50755787 C0 1 0 1 0 0 Z " fill="#EA4F6C" transform="translate(24,30)"/>
<path d="M0 0 C4.56578799 2.90801323 8.62078828 6.1223589 12.6875 9.6875 C13.92883751 10.76400176 15.17103371 11.83951409 16.4140625 12.9140625 C17.02282227 13.44032227 17.63158203 13.96658203 18.25878906 14.50878906 C21.52887491 17.30936174 24.88067465 20.00882978 28.22265625 22.72265625 C31.34396367 25.28204054 34.4245003 27.88593791 37.5 30.5 C41.46903543 33.87283589 45.46017021 37.21176645 49.5 40.5 C54.1045358 44.24787798 58.64019191 48.06983444 63.1640625 51.9140625 C66.5805954 54.81244823 70.02504838 57.671551 73.5 60.5 C78.1045358 64.24787798 82.64019191 68.06983444 87.1640625 71.9140625 C90.5805954 74.81244823 94.02504838 77.671551 97.5 80.5 C102.1045358 84.24787798 106.64019191 88.06983444 111.1640625 91.9140625 C114.5805954 94.81244823 118.02504838 97.671551 121.5 100.5 C126.1045358 104.24787798 130.64019191 108.06983444 135.1640625 111.9140625 C138.5805954 114.81244823 142.02504838 117.671551 145.5 120.5 C150.1045358 124.24787798 154.64019191 128.06983444 159.1640625 131.9140625 C162.5805954 134.81244823 166.02504838 137.671551 169.5 140.5 C174.1045358 144.24787798 178.64019191 148.06983444 183.1640625 151.9140625 C186.5805954 154.81244823 190.02504838 157.671551 193.5 160.5 C198.1045358 164.24787798 202.64019191 168.06983444 207.1640625 171.9140625 C210.5805954 174.81244823 214.02504838 177.671551 217.5 180.5 C222.1045358 184.24787798 226.64019191 188.06983444 231.1640625 191.9140625 C234.5805954 194.81244823 238.02504838 197.671551 241.5 200.5 C246.1045358 204.24787798 250.64019191 208.06983444 255.1640625 211.9140625 C258.5805954 214.81244823 262.02504838 217.671551 265.5 220.5 C270.1045358 224.24787798 274.64019191 228.06983444 279.1640625 231.9140625 C282.5805954 234.81244823 286.02504838 237.671551 289.5 240.5 C294.1045358 244.24787798 298.64019191 248.06983444 303.1640625 251.9140625 C306.5805954 254.81244823 310.02504838 257.671551 313.5 260.5 C317.53983361 263.78823666 321.53086132 267.12728154 325.5 270.5 C332.90222074 276.78815578 340.40891171 282.94068489 348 289 C347.663817 291.88988083 347.08165805 292.92130283 344.953125 294.97265625 C344.06109375 295.66230469 343.1690625 296.35195313 342.25 297.0625 C341.25484375 297.84753906 340.2596875 298.63257813 339.234375 299.44140625 C338.70521484 299.85664551 338.17605469 300.27188477 337.63085938 300.69970703 C334.8671005 302.90326687 332.18757197 305.2046661 329.5 307.5 C324.651542 311.62232944 319.74835837 315.66994086 314.8125 319.6875 C311.68200334 322.26146392 308.58827539 324.87569086 305.5 327.5 C300.65040619 331.62101634 295.74839194 335.66991354 290.8125 339.6875 C287.68200334 342.26146392 284.58827539 344.87569086 281.5 347.5 C276.66233431 351.61088023 271.77382647 355.6514695 266.84765625 359.65625 C262.93654453 362.87527199 259.08141592 366.15918943 255.23828125 369.45898438 C251.49447046 372.65413324 249.59033054 374.12196062 244.69113159 374.14044189 C243.78594788 374.14615204 242.88076416 374.15186218 241.94815063 374.15774536 C240.95189667 374.15886322 239.9556427 374.15998108 238.92919922 374.16113281 C237.88171509 374.16609772 236.83423096 374.17106262 235.75500488 374.17617798 C232.27155914 374.1908401 228.78815911 374.19761238 225.3046875 374.203125 C222.87964883 374.20887817 220.45461018 374.21463589 218.02957153 374.22039795 C212.93003121 374.23092286 207.8305067 374.23675411 202.73095703 374.24023438 C196.23292326 374.24568744 189.7351024 374.26964042 183.23713493 374.29820633 C178.21814392 374.31695214 173.19920264 374.32204488 168.1801796 374.32357025 C165.78747534 374.32657623 163.39477152 374.33453432 161.0021019 374.34775543 C132.10604311 374.49587566 106.4904196 369.47157133 84 350 C82.87851563 349.09507812 82.87851563 349.09507812 81.734375 348.171875 C64.40633922 333.75204103 53.78682802 311.9811719 50 290 C49.88773575 289.36007111 49.7754715 288.72014221 49.6598053 288.06082153 C48.79758465 281.70835098 49.23144712 275.56660254 49.754282 269.21131325 C55.1982785 202.38387036 43.02785432 145.10517281 23.9375 81.5 C23.6511448 80.54567927 23.36478961 79.59135855 23.06975698 78.60811901 C17.92178137 61.47386283 12.70291941 44.36125123 7.29211426 27.30801392 C7.04340909 26.52265853 6.79470391 25.73730314 6.53846222 24.9281491 C5.37906851 21.2689298 4.2136602 17.61188266 3.03507137 13.95879936 C2.62839595 12.68331917 2.22187454 11.40778986 1.8155365 10.13220215 C1.46286681 9.03727196 1.11019712 7.94234177 0.74684048 6.81423187 C0 4 0 4 0 0 Z " fill="#EA4F6C" transform="translate(25,31)"/>
<path d="M0 0 C0.07048168 13.91819477 0.12297775 27.83636135 0.15543652 41.75469875 C0.17102322 48.21909761 0.1921324 54.6833757 0.22631836 61.14770508 C0.25916288 67.39823133 0.27690547 73.64864216 0.28463173 79.89924812 C0.29013052 82.27159502 0.30086684 84.64393634 0.31719017 87.01623344 C0.42433152 103.24814309 0.1031888 119.19903442 -5.625 134.625 C-5.87660889 135.31609863 -6.12821777 136.00719727 -6.38745117 136.71923828 C-11.02961516 148.84113567 -18.37452357 159.36821799 -27 169 C-27.57234375 169.64324219 -28.1446875 170.28648437 -28.734375 170.94921875 C-46.95164161 190.25084647 -72.98924186 199.51169671 -99.01395321 200.5461874 C-104.52886752 200.69067713 -110.04198325 200.74839864 -115.55859375 200.77734375 C-117.96509382 200.79788011 -120.37159303 200.81851708 -122.77809143 200.83924866 C-127.78268823 200.87642593 -132.78702798 200.89605656 -137.79174805 200.90600586 C-144.17638746 200.92244874 -150.55811491 201.00855885 -156.94187832 201.11069393 C-161.89646227 201.17789858 -166.85034465 201.19534347 -171.80534554 201.19940376 C-174.15880343 201.20959443 -176.51226121 201.23785147 -178.86526299 201.28529167 C-199.9998186 201.68002294 -199.9998186 201.68002294 -207.69946289 194.70141602 C-209.53957051 192.85647648 -211.25808978 190.94186287 -213 189 C-214.78599482 187.48893653 -216.59487068 186.00396019 -218.4375 184.5625 C-222.68392967 181.10725373 -226.85283655 177.57288048 -231 174 C-236.92202111 168.90088013 -242.93658564 163.930431 -249 159 C-257.78100253 151.82599306 -266.51522737 144.60809662 -275.09936523 137.19921875 C-279.50645206 133.4017928 -283.99518714 129.71362955 -288.51171875 126.046875 C-292.07952273 123.11197816 -295.55120297 120.07328331 -299 117 C-296.00481382 114.5463886 -293.16439648 113.11961111 -289.55078125 111.75 C-288.41850098 111.31655273 -287.2862207 110.88310547 -286.11962891 110.43652344 C-285.50452454 110.2044519 -284.88942017 109.97238037 -284.25567627 109.73327637 C-282.25073527 108.97669248 -280.24885066 108.21247002 -278.24755859 107.44628906 C-276.00961449 106.58965337 -273.77146467 105.73358824 -271.5324707 104.87969971 C-262.09817949 101.28112878 -252.68618992 97.62511384 -243.27304077 93.97167969 C-240.09479653 92.73827875 -236.91620865 91.50576697 -233.73754883 90.2734375 C-219.824977 84.87866517 -205.92085875 79.46256094 -192.02227783 74.03186035 C-176.81029499 68.0885428 -161.58430138 62.18172856 -146.35546875 56.28173828 C-131.57121422 50.55353007 -116.7951306 44.80492902 -102.02758789 39.03378296 C-91.93000103 35.08806114 -81.82792506 31.1542292 -71.71875 27.23828125 C-70.14849815 26.6300074 -70.14849815 26.6300074 -68.54652405 26.00944519 C-64.31910341 24.37208751 -60.09159349 22.73496152 -55.86373901 21.09872437 C-45.44030442 17.06426627 -35.02059187 13.0219171 -24.62890625 8.90625 C-23.84180267 8.59471481 -23.0546991 8.28317963 -22.2437439 7.96220398 C-18.63238718 6.53188059 -15.0228445 5.09722015 -11.41601562 3.65551758 C-10.17450753 3.16220075 -8.9329729 2.66895068 -7.69140625 2.17578125 C-6.63123291 1.75208252 -5.57105957 1.32838379 -4.47875977 0.8918457 C-2 0 -2 0 0 0 Z " fill="#EA4F6B" transform="translate(674,205)"/>
<path d="M0 0 C5.07395216 0.62113746 9.87163874 1.67779121 14.78514099 3.09768677 C15.9178861 3.41902001 15.9178861 3.41902001 17.07351494 3.74684483 C19.59641827 4.46374584 22.11739518 5.1871947 24.63842773 5.91064453 C26.46058973 6.42990277 28.28286654 6.94875824 30.10524845 7.46724415 C35.08519946 8.88536125 40.06349358 10.30921734 45.04151917 11.73407626 C50.35279754 13.25327583 55.6655649 14.76725127 60.97814941 16.28187561 C71.24918429 19.21107238 81.51880163 22.14520874 91.78793085 25.08107847 C100.04876167 27.44264434 108.31019399 29.80209502 116.572052 32.1600647 C117.74001149 32.49340567 118.90797098 32.82674663 120.11132318 33.17018884 C122.47319562 33.84426907 124.83506903 34.51834593 127.1969434 35.19241941 C170.80434193 47.63851151 214.40482691 60.10881091 258 72.59765625 C258.76669006 72.81728492 259.53338013 73.03691358 260.32330322 73.26319766 C261.06828064 73.4766128 261.81325806 73.69002794 262.58081055 73.9099102 C263.54364204 74.18573427 263.54364204 74.18573427 264.52592468 74.46713054 C293.02098847 82.63186056 321.5097816 90.81835953 350 99 C350 162.36 350 225.72 350 291 C345.08619832 287.31464874 340.32361246 283.67970795 335.6875 279.6875 C331.65903969 276.24788656 327.61021585 272.84217552 323.5 269.5 C318.8954642 265.75212202 314.35980809 261.93016556 309.8359375 258.0859375 C306.4194046 255.18755177 302.97495162 252.328449 299.5 249.5 C294.8954642 245.75212202 290.35980809 241.93016556 285.8359375 238.0859375 C282.4194046 235.18755177 278.97495162 232.328449 275.5 229.5 C270.8954642 225.75212202 266.35980809 221.93016556 261.8359375 218.0859375 C258.4194046 215.18755177 254.97495162 212.328449 251.5 209.5 C246.8954642 205.75212202 242.35980809 201.93016556 237.8359375 198.0859375 C234.4194046 195.18755177 230.97495162 192.328449 227.5 189.5 C222.8954642 185.75212202 218.35980809 181.93016556 213.8359375 178.0859375 C210.4194046 175.18755177 206.97495162 172.328449 203.5 169.5 C198.8954642 165.75212202 194.35980809 161.93016556 189.8359375 158.0859375 C186.4194046 155.18755177 182.97495162 152.328449 179.5 149.5 C174.8954642 145.75212202 170.35980809 141.93016556 165.8359375 138.0859375 C162.4194046 135.18755177 158.97495162 132.328449 155.5 129.5 C150.8954642 125.75212202 146.35980809 121.93016556 141.8359375 118.0859375 C138.4194046 115.18755177 134.97495162 112.328449 131.5 109.5 C126.8954642 105.75212202 122.35980809 101.93016556 117.8359375 98.0859375 C114.4194046 95.18755177 110.97495162 92.328449 107.5 89.5 C102.8954642 85.75212202 98.35980809 81.93016556 93.8359375 78.0859375 C90.4194046 75.18755177 86.97495162 72.328449 83.5 69.5 C78.8954642 65.75212202 74.35980809 61.93016556 69.8359375 58.0859375 C66.4194046 55.18755177 62.97495162 52.328449 59.5 49.5 C54.8954642 45.75212202 50.35980809 41.93016556 45.8359375 38.0859375 C42.4194046 35.18755177 38.97495162 32.328449 35.5 29.5 C31.46015762 26.2117562 27.46938711 22.8724342 23.5 19.5 C12.13775468 9.74069298 12.13775468 9.74069298 0 1 C0 0.67 0 0.34 0 0 Z " fill="#F3947A" transform="translate(24,30)"/>
<path fill="#EB6D70" transform="translate(723,30)" d="M0 0 C1.57074414 3.14148828 0.22964935 5.38650641 -0.7197876 8.71214294 C-0.91691054 9.41002255 -1.11403348 10.10790216 -1.31712985 10.82692963 C-1.98344471 13.17889117 -2.6601896 15.52772319 -3.33691406 17.87670898 C-3.81524923 19.556674 -4.29297234 21.23681338 -4.77012634 22.91711426 C-6.07125289 27.49136905 -7.38170675 32.06290277 -8.69433689 36.63386798 C-9.78800222 40.44534052 -10.8772487 44.25806979 -11.9665153 48.07080132 C-14.53596318 57.06417107 -17.11302796 66.05533411 -19.69482422 75.04516602 C-22.36076015 84.3284571 -25.01414175 93.61527013 -27.66130471 102.90393013 C-29.93186152 110.86948985 -32.21005805 118.83283662 -34.49444938 126.79443985 C-35.8598827 131.55353947 -37.2223994 136.31342553 -38.57764435 141.07543755 C-39.85251628 145.5537297 -41.13689666 150.02918414 -42.42871284 154.50261688 C-42.90177654 156.14678848 -43.37145531 157.79193825 -43.83753014 159.43810463 C-44.4733507 161.68176563 -45.12120602 163.92159873 -45.77227783 166.16087341 C-46.31209227 168.04434809 -46.31209227 168.04434809 -46.86281204 169.96587276 C-48.19985599 173.53323508 -49.43019648 175.19074568 -52.77737427 176.91625977 C-53.44010345 177.17205811 -54.10283264 177.42785645 -54.78564453 177.69140625 C-55.93242424 178.14077042 -55.93242424 178.14077042 -57.10237122 178.59921265 C-57.93741684 178.91709747 -58.77246246 179.2349823 -59.6328125 179.5625 C-60.51583542 179.90592438 -61.39885834 180.24934875 -62.30863953 180.60317993 C-65.2445846 181.74294584 -68.18474535 182.87140311 -71.125 184 C-73.1964947 184.80183051 -75.26769759 185.60441526 -77.33862305 186.40771484 C-81.68844879 188.09351187 -86.04001312 189.77470338 -90.39306641 191.45214844 C-96.76943993 193.90965417 -103.14127676 196.37872744 -109.51171875 198.8515625 C-111.56493469 199.6484548 -113.61815733 200.44532984 -115.67138672 201.2421875 C-116.68360291 201.6350293 -117.69581909 202.02787109 -118.7387085 202.43261719 C-121.83341322 203.63311264 -124.92858276 204.83240136 -128.02392578 206.03125 C-140.85684425 211.00158936 -153.68205753 215.99117396 -166.5 221 C-182.53425485 227.26543561 -198.58193265 233.49577389 -214.63446045 239.7142334 C-229.64692225 245.53014385 -244.64922787 251.37139056 -259.64321899 257.23474121 C-268.80600438 260.8169217 -277.97452275 264.38301747 -287.16015625 267.90625 C-287.99563492 268.22672302 -288.83111359 268.54719604 -289.69190979 268.87738037 C-293.00208917 270.14658973 -296.31244832 271.41532115 -299.62368774 272.6817627 C-308.12361925 275.93356552 -316.60567327 279.21943368 -325.0390625 282.640625 C-325.74845474 282.9278241 -326.45784698 283.21502319 -327.18873596 283.51092529 C-330.51165608 284.85777455 -333.83043305 286.21359599 -337.14331055 287.58496094 C-338.28840088 288.05192383 -339.43349121 288.51888672 -340.61328125 289 C-341.61141846 289.4125 -342.60955566 289.825 -343.63793945 290.25 C-346 291 -346 291 -348 290 C-341.87093944 284.78688808 -335.74085535 279.57933722 -329.5 274.5 C-325.46016863 271.21176517 -321.46907935 267.87278574 -317.5 264.5 C-312.65040619 260.37898366 -307.74839194 256.33008646 -302.8125 252.3125 C-299.68200334 249.73853608 -296.58827539 247.12430914 -293.5 244.5 C-288.65040619 240.37898366 -283.74839194 236.33008646 -278.8125 232.3125 C-275.68200334 229.73853608 -272.58827539 227.12430914 -269.5 224.5 C-264.65040619 220.37898366 -259.74839194 216.33008646 -254.8125 212.3125 C-251.68200334 209.73853608 -248.58827539 207.12430914 -245.5 204.5 C-240.65040619 200.37898366 -235.74839194 196.33008646 -230.8125 192.3125 C-227.68200334 189.73853608 -224.58827539 187.12430914 -221.5 184.5 C-216.65040619 180.37898366 -211.74839194 176.33008646 -206.8125 172.3125 C-203.68200334 169.73853608 -200.58827539 167.12430914 -197.5 164.5 C-192.65040619 160.37898366 -187.74839194 156.33008646 -182.8125 152.3125 C-179.68200334 149.73853608 -176.58827539 147.12430914 -173.5 144.5 C-168.65040619 140.37898366 -163.74839194 136.33008646 -158.8125 132.3125 C-155.68200334 129.73853608 -152.58827539 127.12430914 -149.5 124.5 C-144.65040619 120.37898366 -139.74839194 116.33008646 -134.8125 112.3125 C-131.68200334 109.73853608 -128.58827539 107.12430914 -125.5 104.5 C-120.65040619 100.37898366 -115.74839194 96.33008646 -110.8125 92.3125 C-107.68200334 89.73853608 -104.58827539 87.12430914 -101.5 84.5 C-96.65040619 80.37898366 -91.74839194 76.33008646 -86.8125 72.3125 C-83.68200334 69.73853608 -80.58827539 67.12430914 -77.5 64.5 C-72.65040619 60.37898366 -67.74839194 56.33008646 -62.8125 52.3125 C-59.68200334 49.73853608 -56.58827539 47.12430914 -53.5 44.5 C-48.65040619 40.37898366 -43.74839194 36.33008646 -38.8125 32.3125 C-35.68200241 29.73853532 -32.58830952 27.12427006 -29.5 24.5 C-24.64047892 20.37151309 -19.73409572 16.30729475 -14.7890625 12.28125 C-9.82891665 8.22421194 -4.9163921 4.10986355 0 0 Z "/>
<path d="M0 0 C4.56578799 2.90801323 8.62078828 6.1223589 12.6875 9.6875 C13.92883751 10.76400176 15.17103371 11.83951409 16.4140625 12.9140625 C17.02282227 13.44032227 17.63158203 13.96658203 18.25878906 14.50878906 C21.52887491 17.30936174 24.88067465 20.00882978 28.22265625 22.72265625 C31.34396367 25.28204054 34.4245003 27.88593791 37.5 30.5 C41.46903543 33.87283589 45.46017021 37.21176645 49.5 40.5 C54.1045358 44.24787798 58.64019191 48.06983444 63.1640625 51.9140625 C66.5805954 54.81244823 70.02504838 57.671551 73.5 60.5 C78.1045358 64.24787798 82.64019191 68.06983444 87.1640625 71.9140625 C90.5805954 74.81244823 94.02504838 77.671551 97.5 80.5 C102.1045358 84.24787798 106.64019191 88.06983444 111.1640625 91.9140625 C114.5805954 94.81244823 118.02504838 97.671551 121.5 100.5 C126.1045358 104.24787798 130.64019191 108.06983444 135.1640625 111.9140625 C138.5805954 114.81244823 142.02504838 117.671551 145.5 120.5 C150.1045358 124.24787798 154.64019191 128.06983444 159.1640625 131.9140625 C162.5805954 134.81244823 166.02504838 137.671551 169.5 140.5 C174.1045358 144.24787798 178.64019191 148.06983444 183.1640625 151.9140625 C186.5805954 154.81244823 190.02504838 157.671551 193.5 160.5 C198.1045358 164.24787798 202.64019191 168.06983444 207.1640625 171.9140625 C210.5805954 174.81244823 214.02504838 177.671551 217.5 180.5 C222.1045358 184.24787798 226.64019191 188.06983444 231.1640625 191.9140625 C234.5805954 194.81244823 238.02504838 197.671551 241.5 200.5 C246.1045358 204.24787798 250.64019191 208.06983444 255.1640625 211.9140625 C258.5805954 214.81244823 262.02504838 217.671551 265.5 220.5 C270.1045358 224.24787798 274.64019191 228.06983444 279.1640625 231.9140625 C282.5805954 234.81244823 286.02504838 237.671551 289.5 240.5 C294.1045358 244.24787798 298.64019191 248.06983444 303.1640625 251.9140625 C306.5805954 254.81244823 310.02504838 257.671551 313.5 260.5 C318.09804337 264.24259344 322.62870599 268.05758822 327.14428711 271.89868164 C331.59507547 275.67742691 336.11090359 279.36741868 340.66015625 283.02734375 C342.90063804 284.91623073 344.9620442 286.89615186 347 289 C342.2124719 288.26711796 337.9262291 286.55797036 333.4375 284.8125 C332.5309668 284.46356689 331.62443359 284.11463379 330.69042969 283.75512695 C327.45824551 282.50863085 324.22894319 281.25486719 321 280 C319.77361816 279.52401367 318.54723633 279.04802734 317.28369141 278.55761719 C310.79302469 276.03806805 304.30404612 273.51419974 297.81614685 270.98753357 C286.43643282 266.55596041 275.05084146 262.13962399 263.66403198 257.72631836 C243.86779887 250.05367654 224.07635603 242.36886164 204.29052734 234.66943359 C197.6151354 232.07188815 190.93907677 229.47605684 184.26309204 226.8800354 C180.50870297 225.42008802 176.75435341 223.96003907 173 222.5 C171.50000019 221.91666618 170.00000019 221.33333284 168.5 220.75 C123.50000001 203.25000001 123.50000001 203.25000001 121.2504425 202.37516785 C119.74897131 201.79126521 118.24749628 201.2073724 116.74601746 200.62348938 C113.01849554 199.17394661 109.29103812 197.72423846 105.5637207 196.27416992 C98.54582306 193.54414418 91.52726417 190.81585304 84.50656128 188.0930481 C81.19676119 186.80931349 77.88730792 185.52468614 74.57788086 184.23999023 C73.00285865 183.62886682 71.42766734 183.01817904 69.85229492 182.40795898 C67.66542069 181.56084238 65.47913836 180.71221432 63.29296875 179.86328125 C62.65602585 179.61701492 62.01908295 179.3707486 61.36283875 179.11701965 C59.57163801 178.42050366 57.78573435 177.71041359 56 177 C54.26107986 176.50941101 54.26107986 176.50941101 52.48703003 176.00891113 C50.17939865 174.997892 49.20467585 174.35614199 47.93895054 172.15374279 C47.03665289 169.61108141 46.33966777 167.07007527 45.67944336 164.45385742 C45.39929603 163.44609599 45.11914869 162.43833456 44.83051205 161.4000349 C44.20659946 159.15433229 43.59401498 156.90546128 42.99091721 154.65407944 C41.95911123 150.84921968 40.87519486 147.061381 39.77127075 143.27700806 C39.37427834 141.91453946 38.97732966 140.55205811 38.5804224 139.1895647 C38.37875182 138.49728295 38.17708124 137.80500119 37.96929944 137.0917412 C36.9047535 133.42524306 35.85394184 129.75482426 34.80335999 126.08430481 C34.5865933 125.32708112 34.36982661 124.56985743 34.14649123 123.78968757 C33.70064869 122.23184593 33.2548928 120.67397948 32.80922055 119.11608911 C32.12126082 116.71155925 31.43281093 114.30717024 30.74421501 111.90282249 C28.33653571 103.4956397 25.93111621 95.08781377 23.52758789 86.67944336 C21.29326286 78.86327375 19.05343242 71.04869527 16.8112455 63.23477775 C14.8753288 56.48717781 12.94345399 49.73842914 11.01469177 42.98878068 C9.86707238 38.9730322 8.71777247 34.95778337 7.56427193 30.94371986 C6.48514416 27.1880263 5.41103279 23.43093477 4.34080696 19.67269516 C3.94757563 18.29508958 3.55253415 16.91799924 3.15555954 15.54146767 C2.61462028 13.66469004 2.08081057 11.78586182 1.54737854 9.90693665 C1.24674783 8.8564681 0.94611712 7.80599955 0.63637638 6.72369862 C0 4 0 4 0 0 Z " fill="#ED6E71" transform="translate(25,31)"/>
<path d="M0 0 C4.09969832 2.04984916 7.16047785 4.56818308 10.5625 7.5625 C11.82206003 8.65723639 13.08248534 9.75097798 14.34375 10.84375 C15.27574219 11.65199219 15.27574219 11.65199219 16.2265625 12.4765625 C18.63774159 14.5478397 21.09467909 16.55921009 23.5625 18.5625 C27.58358091 21.82778303 31.55345162 25.14557844 35.5 28.5 C39.46903543 31.87283589 43.46017021 35.21176645 47.5 38.5 C52.1045358 42.24787798 56.64019191 46.06983444 61.1640625 49.9140625 C65.46013044 53.55859407 69.81368341 57.1278734 74.18359375 60.68359375 C77.33785155 63.27787235 80.45204343 65.91604673 83.5625 68.5625 C88.9567002 73.15049526 94.43694443 77.61736706 100 82 C97.85513353 84.33955668 95.83549812 85.76894975 93.00143433 87.18302917 C92.1909967 87.59103256 91.38055908 87.99903595 90.54556274 88.41940308 C89.66024872 88.8574527 88.77493469 89.29550232 87.86279297 89.74682617 C86.92761841 90.21543564 85.99244385 90.6840451 85.02893066 91.16685486 C81.93622065 92.71471433 78.83929809 94.25393576 75.7421875 95.79296875 C73.59629435 96.86438687 71.45063694 97.93627726 69.3052063 99.00862122 C64.80961381 101.25411572 60.31208455 103.49566502 55.81298828 105.73413086 C50.03164484 108.61063762 44.25381268 111.49411057 38.47723198 114.38016796 C34.04822625 116.59259781 29.61809236 118.80275983 25.18753433 121.01207924 C23.05577883 122.07509901 20.92421521 123.13850368 18.79284286 124.20229149 C15.8224123 125.68408898 12.85064346 127.16316423 9.87841797 128.64135742 C8.54437424 129.30754089 8.54437424 129.30754089 7.18338013 129.98718262 C5.97618317 130.58649849 5.97618317 130.58649849 4.74459839 131.19792175 C4.04147963 131.5479938 3.33836086 131.89806585 2.61393547 132.25874615 C1 133 1 133 0 133 C0 89.11 0 45.22 0 0 Z " fill="#F2947A" transform="translate(374,322)"/>
<path d="M0 0 C0 43.89 0 87.78 0 133 C-21.85385199 122.64817537 -21.85385199 122.64817537 -28.48486328 119.33813477 C-29.65704407 118.75576805 -29.65704407 118.75576805 -30.85290527 118.16163635 C-33.34308129 116.92363625 -35.83184361 115.68283383 -38.3203125 114.44140625 C-39.61621119 113.79557744 -39.61621119 113.79557744 -40.93828964 113.13670158 C-45.47928231 110.87359616 -50.01918784 108.60832857 -54.55810547 106.34106445 C-59.23939977 104.00319912 -63.92438648 101.67283039 -68.61018562 99.34401035 C-72.23227407 97.54223726 -75.85169974 95.73516664 -79.47039413 93.92658806 C-81.19903737 93.06378063 -82.92868165 92.20297583 -84.65933609 91.34420967 C-87.05714867 90.15377285 -89.45111277 88.95592828 -91.84423828 87.75610352 C-92.55885223 87.40340393 -93.27346619 87.05070435 -94.00973511 86.68731689 C-98.88586666 84.22826668 -98.88586666 84.22826668 -100 82 C-99.35675781 81.47792969 -98.71351563 80.95585937 -98.05078125 80.41796875 C-92.82408339 76.16055865 -87.63667066 71.86528826 -82.5 67.5 C-77.65042237 63.37896395 -72.74839175 59.33008631 -67.8125 55.3125 C-64.68200334 52.73853608 -61.58827539 50.12430914 -58.5 47.5 C-53.65040619 43.37898366 -48.74839194 39.33008646 -43.8125 35.3125 C-40.68200334 32.73853608 -37.58827539 30.12430914 -34.5 27.5 C-29.66094146 23.38793617 -24.77066859 19.34658784 -19.84375 15.33984375 C-15.96545184 12.1487715 -12.14064344 8.8959099 -8.32617188 5.62890625 C-1.7236612 0 -1.7236612 0 0 0 Z " fill="#EC6E71" transform="translate(374,322)"/>
</svg>